<?xml version="1.0" encoding="UTF-8"?><svg xmlns="http://www.w3.org/2000/svg" viewBox="0 0 210.94 349.79"><defs><style>.cls-1{stroke-width:0px;}.cls-1,.cls-2{fill:#70370f;}.cls-2,.cls-3{stroke:#000;}.cls-2,.cls-3,.cls-4,.cls-5,.cls-6,.cls-7,.cls-8,.cls-9,.cls-10{stroke-miterlimit:10;}.cls-3,.cls-8{fill:none;}.cls-4{fill:#dfb5d6;}.cls-4,.cls-5,.cls-6,.cls-7,.cls-8,.cls-9,.cls-10{stroke:#1d1d1b;}.cls-5{fill:#fff;}.cls-6{fill:#efe0c7;}.cls-7{fill:#000;}.cls-9{fill:#d11852;}.cls-10{fill:#7eb7e4;}</style></defs><g id="Calque_1"><path class="cls-1" d="M191.55,132.56l2.7,138.42-173.88,21.92c-5.65,3.56-19.79-1.33-19.79-1.33,9.42-11.11,14.01-203.28,14.01-203.28"/><path class="cls-6" d="M129.42,192.67s-3.76,20.98,0,26.31h48.5s22.67-2.22,24.89,14.22l5.33,116.09H19.25v-95.65c3.11-24,15.56-32.89,15.56-32.89l55.76-1.6c8.66-9.48,2.19-25.5,2.19-25.5l36.65-.98Z"/><circle class="cls-6" cx="108.87" cy="110.86" r="84.33"/><circle class="cls-5" cx="79.37" cy="105.73" r="17.43"/><circle class="cls-10" cx="81.48" cy="105.73" r="11.28"/><circle class="cls-7" cx="83.18" cy="105.73" r="6.49"/><circle class="cls-5" cx="149.55" cy="105.73" r="17.43"/><circle class="cls-10" cx="151.66" cy="105.73" r="11.28"/><circle class="cls-7" cx="153.36" cy="105.73" r="6.49"/><path class="cls-8" d="M122.03,123.16s.46,6.88,5.05,10.09c0,0-.46,7.8-5.05,8.72"/><path class="cls-1" d="M16.14,56.46C2.61,125.88,52.14,200.46,52.14,200.46c-16-21.33-13.33-88.25-13.33-88.25,35.11-11.8,73.56-61.53,73.56-61.53,0,0,30.89,35.11,64.67,50.67,0,0,10.22,78.67-4.44,96.44,0,0,47.56-105.78,1.78-162.22,0,0-22.7-36.89-73.33-34.22,0,0-74.67,2.67-84.89,55.11Z"/><path class="cls-2" d="M23.25,93.06c3.85,60.44,28.89,107.41,28.89,107.41-14.37-12.89-13.33-88.25-13.33-88.25,21.5-2.89,73.56-61.53,73.56-61.53,0,0,44.81,46.22,64.67,50.67,0,0,11.93,70.44-5.19,98,0,0,42-98.53,11.78-149.38,0,0-20.44-43.12-64-48.76,0,0-117.57-15.5-105.82,98.02,0,0-.55,134.86-13.21,192.34,0,0,12.25,4.44,19.79,1.33"/><path class="cls-9" d="M175.69,349.29l-.44-78.31h35.11l-4-26.58c-1.33-29.84-25.78-25.42-25.78-25.42h-25.33c-47.56,56.74-85.06.76-85.06.76l-27.41.79s-20.42-2.73-23.53,19.93l-4.89,32.44,30.67.44,1.33,75.94h129.33Z"/></g><g id="sourir"><path class="cls-4" d="M83.18,161.69s31.65,39.45,63.69-2.75l-63.69,2.75Z"/></g><g id="content"><path class="cls-3" d="M92.76,163.29s14.97,16.59,46.97,0"/></g><g id="neutre"><line class="cls-3" x1="92.76" y1="165.8" x2="142.83" y2="163.43"/></g><g id="triste"><path class="cls-3" d="M96.8,166.39s25.88-12.97,43.58,0"/></g><g id="colere"><line class="cls-3" x1="127.07" y1="94.44" x2="162.95" y2="78.09"/><line class="cls-3" x1="58.14" y1="78.09" x2="104.03" y2="94.44"/><path class="cls-6" d="M97.57,169.35s28.45-29.63,42.81-2.37"/></g></svg>