<?xml version="1.0" encoding="UTF-8"?><svg xmlns="http://www.w3.org/2000/svg" viewBox="0 0 309.35 394.86"><defs><style>.cls-1{fill:none;}.cls-1,.cls-2,.cls-3{stroke-width:0px;}.cls-2{fill:#5e1211;}.cls-4{fill:#d43333;stroke:#060606;}.cls-4,.cls-5,.cls-6{stroke-miterlimit:10;}.cls-3,.cls-5{fill:#e8e34c;}.cls-5{stroke:#470f10;stroke-width:.5px;}.cls-6{fill:#e5914b;stroke:#683a33;}</style></defs><g id="Calque_1"><path class="cls-2" d="M15.48,143.51s8.88-2.08,14.38-.82l21.91,37.53s-41.69-36.01-36.29-36.71"/><polygon class="cls-3" points="172.47 196.12 218 100.05 232.51 108.05 192.1 191.34 172.47 199.51 172.47 196.12"/><polygon class="cls-6" points="218 100.05 232.51 100.05 248.53 108.05 232.51 108.05 218 100.05"/><polygon class="cls-6" points="248.53 108.05 223.81 171.46 192.1 191.34 232.51 108.05 248.53 108.05"/><polygon class="cls-5" points="150.13 202.62 114.93 35.5 94.91 38 124.39 206.82 150.13 205.12 150.13 202.62"/><polyline class="cls-6" points="259.72 156.06 307.57 72.02 291.06 66.52 230.32 167.64 259.72 156.06"/><polyline class="cls-6" points="94.91 38 88.41 38 113.94 206.02 124.39 206.82"/><polygon class="cls-3" points="71.89 108.05 97.83 100.05 113.94 206.02 103.42 206.02 71.89 108.05"/><polygon class="cls-3" points="160.86 92.54 184.98 100.05 160.64 202.96 150.13 205.12 141.46 161.45 160.86 92.54"/><polygon class="cls-6" points="244.52 43 261.54 47.01 232.51 100.05 218 100.05 172.47 196.12 197.99 115.06 244.52 43"/><polygon class="cls-6" points="228.01 32.99 244.52 43 261.54 47.01 244.77 32.99 228.01 32.99"/><polygon class="cls-6" points="278.55 55.01 291.06 66.52 307.57 72.02 293.06 57.01 278.55 55.01"/><polygon class="cls-6" points="94.28 38 114.93 35.5 107.38 35.5 89.91 38 94.28 38"/><polygon class="cls-5" points="132.97 121.16 150.13 7.48 160.64 7.48 141.46 161.45 132.97 121.16"/><polygon class="cls-6" points="184.98 100.05 202.49 100.05 172.47 199.51 160.64 202.96 184.98 100.05"/><path class="cls-5" d="M18.52,76.53l11.84-4.5,65.26,115.19-25.68,4.37S8.68,76.53,18.52,76.53Z"/><polygon class="cls-6" points="88.41 55.01 77.93 58.01 83.17 100.05 97.83 100.05 88.41 55.01"/><polygon class="cls-5" points="30.36 72.02 41.37 68.52 61.89 108.05 77.59 161.45 30.36 72.02"/><path class="cls-5" d="M188.98,97.54s26.02-54.54,39.03-64.55l16.51,10.01-44.43,68.8,2.4-11.76-13.51-2.5Z"/><polygon class="cls-2" points="248.53 108.05 251.03 111.8 223.81 171.46 248.53 108.05"/><polygon class="cls-5" points="160.64 7.48 181.57 5.47 171.1 92.54 160.86 92.54 141.46 161.45 160.64 7.48"/><path class="cls-6" d="M19.35,114.56l14.03-3,36.98,80.98-18.6-12.31S12.35,114.06,19.35,114.56Z"/><polygon class="cls-6" points="19.35 114.56 33.38 104.05 46.87 108.05 35.51 116.22 19.35 114.56"/><polygon class="cls-6" points="160.86 92.54 181.57 92.54 202.49 100.05 184.84 100.65 160.86 92.54"/><polygon class="cls-5" points="278.55 55.01 291.06 66.52 228.01 168.95 220.31 171.46 248.53 108.05 244.52 106.05 278.55 55.01"/><polygon class="cls-6" points="59.73 115.73 71.72 108.22 104.77 210.19 92.43 205.23 59.73 115.73"/><polygon class="cls-6" points="150.13 7.48 146.81 1.47 181.57 1.47 181.57 5.47 150.13 7.48"/><polygon class="cls-2" points="71.89 108.05 97.83 100.05 83.17 100.05 63.51 112.58 71.89 108.05"/><polygon class="cls-6" points="146.81 1.47 150.13 7.48 132.42 118.55 128.85 101.38 146.81 1.47"/><polygon class="cls-5" points="46.87 108.05 91.05 200.73 69.94 191.59 35.51 116.22 46.87 108.05"/><polygon class="cls-6" points="18.14 76.3 30.36 70.46 41.29 68.29 18.14 76.3"/><path class="cls-4" d="M15.48,143.51S.5,154.35.5,190.5c0,0,7.23,133.24,24.79,158.55,0,0,7.23,30.99,61.97,26.34,0,0,22.81-5.16,73.38,4.65,0,0,61.42,38.22,93.44-12.91,0,0,14.46-31.5,21.17-75.92,0,0,27.37-59.39,24.27-100.71,0,0-1.55-68.17-82.11-14.98,0,0-75.4,63.52-159.58,9.81,0,0-50.1-41.83-42.35-41.83Z"/></g><g id="contour-frite"><path class="cls-1" d="M160.64,380.04s57.79,40.76,93.44-12.91c0,0,21.38-62.14,21.17-75.92,0,0,28.56-72.65,24.52-88.25,0,0,6.68-52.18-40.04-46.9l47.85-84.04-14.51-15.01-14.51-2-34.03,51.04-12.01-6,29.02-53.04-16.76-14.01h-16.76s-27.64,30.82-39.03,64.55l-7.42-5h-10.46L181.57,1.47h-34.76l-17.44,102.58-14.44-68.55h-7.55l-17.47,2.5,5,42.8-6.5-25.79-10.47,3,5.24,42.03-19.66,12.53-22.23-44.28-10.92,2.17-15.37,5.84,13.19,31.64-8.83,6.62,9.67,28.6-13.55.35s-23.37,21.06-12,87.83c0,0,8.98,94.71,13.97,99.46,0,0,7.03,54.31,72.31,44.17,0,0,40.7-3.99,70.88,5.07Z"/></g></svg>