<?xml version="1.0" encoding="UTF-8"?>
<svg xmlns="http://www.w3.org/2000/svg" version="1.1" viewBox="0 0 400 400">
  <defs>
    <style>
    #objet-verre{
    visibility: hidden;
    }
     .cls-1 {
    fill: #efddce;
  }

  .cls-1, .cls-2, .cls-3, .cls-5, .cls-7, .cls-8, .cls-9 {
    stroke: #1d1d1b;
  }

  .cls-2 {
    fill: #585f61;
  }

  .cls-11 {
    fill: #f6db68;
  }

  .cls-12 {
    fill: #f9f7d0;
  }

  .cls-3 {
    fill: #273e42;
  }

  .cls-5 {
    fill: #f7f8e2;
  }

  .cls-6 {
    fill: #e51f2c;
  }

  .cls-6, .cls-10 {
    stroke: #b27a36;
    stroke-width: .2px;
  }

  .cls-7 {
    fill: #f5adb1;
  }

  .cls-8 {
    fill: #fff;
  }

  .cls-9 {
    fill: #bcbcbb;
  }

  .cls-13 {
    fill: #fdfdfd;
  }

  .cls-10 {
    fill: #f1ab4e;
  }
    </style>
  </defs>
    <g id="Calque_1" data-name="Calque 1">
        <rect class="cls-9" x="74.7" y="45" width="267.8" height="60.3"/>
        <rect class="cls-3" x="74.7" y="105.3" width="267.8" height="290.6"/>
        <polygon class="cls-2" points="342.5 45 337.8 15.6 104.1 15.6 74.7 45 342.5 45"/>
        <rect class="cls-9" x="74.7" y="336.5" width="267.8" height="59.4"/>
      </g>
        <g id="objet-verre">
            <rect id="couvercle" class="cls-8" x="166.1" y="223.8" width="76.8" height="2.1"/>
            <path id="verre" class="cls-1" d="M240.4,225.8l-12.6,106.7c-20.7,5-47.4.8-48.2-2.8s-11.1-103.5-11.1-103.5l71.9-.4Z"/>
            <ellipse id="couleur-liquide-elipse"  cx="204.5" cy="292.2" rx="25.6" ry="3"/>
            <path id="couleur-liquide" d="M179.5,293.7l4.1,32.3s22.5,11,40,0l6-33.8s-16.9,7.2-50.1,1.5Z"/>
        </g>
        <g id="bouton-coca">
            <rect class="cls-7" x="229.6" y="105.3" width="95.5" height="86.1"/>
            <circle class="cls-6" cx="277.4" cy="147.4" r="37.8"/>
            <path id="text" class="cls-13" d="M256.5,137.9h0s0,0,0,0c-.4,0-1,.2-1.5.5s-1.1.7-1.7,1.2c-.4.3-.8.7-1.1,1-.4.4-.7.7-1.1,1.1-.2.3-.5.5-.7.8-.2.3-.4.5-.6.7-.3.4-.5.7-.8,1.1-.2.4-.5.7-.7,1.1-.6.9-1,1.9-1.4,2.7s-.6,1.7-.6,2.5c0,.1,0,.2,0,.3v.3c0,1.1.3,2,.8,2.6.5.6,1.3,1,2.4,1.3.3,0,.5.1.8.1s.5,0,.7,0,.6,0,.9,0c.3,0,.6,0,.8-.1.3,0,.6-.1.9-.2.3,0,.6-.2.9-.3.2,0,.4,0,.6-.1s.4,0,.6-.1c.5-.1,1-.2,1.4-.3.4,0,.8-.2,1.2-.3.4,0,.8-.2,1.2-.3.4,0,.9-.2,1.4-.3,0,0,.1,0,.2,0s.1,0,.2,0c.3,0,.7-.1.9-.2.3,0,.6-.1.9-.1.3,0,.5,0,.8-.1.3,0,.6,0,.9,0h.3s0,0,.1,0h.2c1.5,0,2.8.3,3.9.7,1.1.4,2.2,1,3.2,1.8.2.2.4.4.7.6.2.2.4.4.7.6-.4-.3-.8-.5-1.3-.7-.5-.2-1-.3-1.5-.4-.3,0-.6,0-.8,0-.3,0-.6,0-.8,0s-.4,0-.6,0c-.2,0-.3,0-.5,0-.3,0-.6.1-.8.2-.3.1-.5.2-.7.4s-.4.3-.5.4c-.1.1-.2.2-.3.2-.1-.1-.3-.2-.4-.4-.2-.2-.4-.4-.7-.5-.3-.2-.8-.4-1.3-.6-.5-.2-1.2-.4-2-.4,0,0-.2,0-.3,0h-.3c-.8,0-1.5,0-2.3.3s-1.7.4-2.6.6c-.2,0-.3,0-.5.1s-.3,0-.5.2c-.9.3-1.7.5-2.6.7-.8.2-1.6.3-2.4.3h-.2c0,0-.2,0-.2,0,0,0-.2,0-.3,0,0,0-.2,0-.2,0-.3,0-.7-.1-1.1-.2s-.8-.2-1.3-.4c-.8-.3-1.6-.9-2.3-1.6-.7-.8-1.1-2-1.1-3.7,0-1.4.4-2.8,1.2-4.2.8-1.4,1.8-2.7,3-4,.8-.9,1.6-1.6,2.4-2.4.9-.7,1.7-1.3,2.6-1.8.7-.4,1.4-.7,2.1-1,.7-.2,1.4-.4,2-.4h0c.4,0,.8.1,1.2.4s.6.6.6,1.1h0v.4c0,0,0,.1,0,.2,0,.5-.3.9-.6,1.3-.3.4-.7.6-1.1.6h-.1s0,0-.1,0c-.2,0-.4-.1-.5-.2,0-.1-.1-.2-.1-.4s0-.2,0-.4c0-.1.1-.2.2-.4,0-.1.2-.2.3-.3.1,0,.2-.2.4-.2.1,0,.3-.2.4-.2s.2,0,.3,0h0v-.2h0c0-.1,0-.2,0-.2,0-.1,0-.2-.2-.3,0,0-.3-.1-.5-.1h0ZM268.3,151.4c-.2-.2-.3-.3-.4-.5,0-.1,0-.3-.1-.4,0-.1,0-.2,0-.3,0,0,0,0,0,0,0,0,0,0,0,0,0,0,0,.1-.2.3-.1.1-.3.3-.4.5-.2.2-.5.4-.8.6-.3.2-.6.3-1,.3-.6,0-.9-.1-1.2-.4-.2-.3-.3-.6-.4-.9,0,0,0,0,0-.1h0c0-.3,0-.4,0-.6,0-.1,0-.3,0-.4,0,0,0-.1,0-.2,0,0,0,0,0-.1,0,0-.1.2-.3.5-.2.3-.5.5-.9.9-.4.3-.7.5-1.2.8-.4.3-.9.4-1.3.5,0,0-.2,0-.3,0,0,0-.2,0-.2,0h-.2c-.8,0-1.4-.2-1.6-.6-.3-.4-.4-.8-.5-1.4h0c0-.3,0-.5.1-.8,0-.3.2-.6.3-.9,0-.1,0-.2.1-.4,0-.1,0-.3.1-.4.1-.3.2-.6.3-.8s.2-.4.2-.4l-1.1.2c0,.1-.2.4-.4.7-.2.3-.4.7-.7,1.1,0,.1-.2.2-.3.4,0,.1-.2.2-.3.4,0,0,0,0,0,0,0,0,0,0,0,0-.6.7-1.2,1.4-1.8,1.9-.6.6-1.3.9-2.1.9h-.1c0,0-.2,0-.3,0,0,0-.2,0-.3,0-.3,0-.6-.3-.9-.5-.3-.2-.4-.6-.5-1h0v-.2s0,0,0,0h0c0-.6.1-1.2.4-1.9s.6-1.3,1.2-2.2c.3-.4.5-.8.8-1.1.3-.3.6-.6.8-.9.7-.7,1.4-1.2,2-1.5.7-.3,1.2-.5,1.6-.5.4,0,.8.1,1.1.4s.5.7.5,1.2h0c0,.2,0,.3,0,.4,0,.1,0,.2,0,.3,0,.1,0,.3-.1.4,0,.1,0,.2-.1.4,0,.2-.1.3-.2.4,0,.1,0,.2-.1.2,0,0,0,0,0,0,0,0,0,0,0,0,.1,0,.3,0,.5,0,.2,0,.4-.2.7-.4.3-.2.5-.4.7-.6.2-.2.4-.4.6-.6,0,0,0,0,0,0,0,0,0,0,0,0,.1-.1.3-.3.4-.4.2-.1.3-.3.5-.4.4-.3.7-.5,1.1-.7.3-.2.6-.3.9-.4.1,0,.2,0,.3,0s.2,0,.3,0h.1s0,0,0,0h0c.4,0,.7.2,1,.4s.4.6.4,1h0c0,.5-.1.9-.3,1.2-.2.3-.4.6-.7.8-.1.1-.3.2-.4.3-.1,0-.2,0-.3,0h0c-.2,0-.3-.1-.4-.2s-.1-.3-.1-.4,0,0,0-.1c0,0,0,0,0-.1,0,0,0-.2,0-.3s0-.2.1-.2c0-.1.2-.2.3-.3s.2-.1.3-.2c.2-.1.3-.2.5-.2.2,0,.3,0,.3,0h0s0,0,0,0h0c0,0,0-.1,0-.1,0,0,0,0-.2-.1,0,0-.2,0-.4,0s-.4.1-.7.3c-.3.2-.6.5-.9.8-.2.2-.4.4-.6.7-.2.2-.4.5-.6.7,0,0,0,.1-.1.2,0,0,0,.1-.1.2-.1.2-.3.5-.4.8-.1.3-.3.6-.4.8-.2.4-.3.8-.4,1.2-.1.4-.2.7-.2,1s0,.2,0,.3c0,0,0,.2.1.2,0,0,0,0,.1,0,0,0,0,0,.1,0,.2,0,.5,0,.8-.2.3-.1.7-.3,1-.6.3-.2.6-.4.9-.7.3-.2.5-.5.7-.7.8-1,1.5-1.9,2.1-2.7.6-.8,1.2-1.5,1.7-2,.1-.1.3-.2.4-.4.1-.1.3-.2.4-.3.1,0,.2-.2.3-.2.1,0,.2-.1.3-.2.2-.1.5-.2.7-.3.2,0,.5,0,.8,0s.6,0,.8,0c.2,0,.3.1.4.2,0,0,.1,0,.1.1s0,0,.1.1h0s0,0,0,0c0,0,0,0,0-.1,0,0,0,0,0,0,0,0,0,0,0,0,0,0,0,0,0,0,0,0,0,0,0,0,0,0,.1,0,.3,0,.2,0,.4,0,.6,0h.1c.3,0,.5,0,.7,0,.2,0,.4,0,.4,0,0,0-.2.4-.6,1.1s-.9,1.5-1.4,2.3c0,0,0,.1-.1.2,0,0,0,.1,0,.2-.5.8-.9,1.5-1.2,2.2s-.5,1.2-.5,1.4,0,0,0,0,0,0,0,0c0,0,0,0,.1,0,0,0,0,0,.1,0,.2,0,.3,0,.5-.2.2-.1.4-.3.6-.5,0,0,.2-.2.2-.3,0,0,.2-.2.2-.3,0,0,.1-.2.2-.3,0-.1.1-.2.2-.3,0,0,0,0,0,0,0,0,0,0,0-.1.1-.2.2-.4.4-.5.1-.1.3-.2.4-.1.2,0,.1.3-.1.9-.3.5-.6,1.1-1.1,1.6-.3.4-.5.7-.9,1-.3.3-.6.6-1,.9-.3.2-.5.3-.8.4s-.5.2-.7.2c-.4,0-.7,0-.9-.2ZM253.3,147s0,0,0,.1c0,0,0,0,0,.1,0,.1,0,.2-.1.4,0,.1-.1.2-.2.4,0,.2-.2.4-.2.6s0,.4,0,.5,0,.2,0,.3c0,0,0,.1.1.2,0,0,0,0,.1,0,0,0,0,0,.2,0,.2,0,.4,0,.6-.1.2,0,.4-.2.7-.4.2-.1.3-.3.5-.4s.3-.3.4-.5c0,0,.1-.2.3-.4.1-.2.2-.3.4-.5,0,0,0,0,0,0,0,0,0,0,0,0,.1-.2.2-.4.3-.6.1-.2.2-.3.2-.4-.2,0-.3,0-.4,0-.1,0-.2,0-.3-.1,0,0-.1,0-.2,0,0,0-.1,0-.2-.1-.2-.1-.4-.3-.5-.4-.1-.2-.2-.3-.4-.6-.1.1-.2.3-.3.4,0,.1-.2.3-.3.4,0,.1-.1.2-.2.3,0,0,0,.2-.1.3,0,.1-.1.3-.2.4s-.1.3-.2.4h0ZM256.8,145.6s0,0,0,0c0,0,0,0,0-.1,0-.1.1-.3.2-.5,0-.2.1-.4.2-.6,0,0,0-.2,0-.3,0,0,0-.2,0-.3h0c0-.3,0-.5-.1-.6,0-.1-.1-.2-.2-.2,0,0,0,0,0,0,0,0,0,0,0,0h0c0,0-.2,0-.2,0,0,0-.2,0-.3,0-.2,0-.3.2-.5.3-.2.1-.3.3-.4.4,0,0-.1.2-.2.3,0,0,0,.2,0,.3h0c0,0,0,.2,0,.3,0,.1.1.2.2.3.1.2.3.3.5.5.2.1.4.2.6.3h.1s0,0,0,0h0ZM270.4,143.1s0,0-.1.1c0,0,0,0-.1,0-.2.2-.5.4-.8.8-.3.3-.7.9-1.3,1.7-.1.2-.2.4-.4.6-.1.2-.2.4-.3.6-.2.4-.4.8-.5,1.3-.1.4-.2.7-.2,1s0,.2,0,.3c0,0,0,.1.1.2,0,0,0,0,0,0,0,0,0,0,0,0,0,0,0,0,0,0h0c.2,0,.4,0,.6-.3.2-.2.4-.4.5-.6,0,0,0,0,.1-.1,0,0,0-.1,0-.1.6-.9,1.1-1.8,1.6-2.6.5-.8,1-1.6,1.5-2.4,0,0,0-.1,0-.2,0,0,0,0,0-.1,0,0,0-.1,0-.1,0,0,0,0-.1-.1,0,0,0,0,0,0s0,0,0,0c0,0,0,0-.1,0,0,0,0,0-.1,0-.1,0-.2,0-.3,0-.1,0-.3.1-.4.3h0ZM294.2,136.9c.5,0,.9,0,1.2.1.3,0,.6.1.9.3.2,0,.4.2.6.3.2,0,.4.2.6.3.1,0,.3.2.4.2s.3.2.4.3c0,0,0,0,.1,0s0,0,.1,0c.4.2.8.5,1.2.7.4.2.6.4.7.4l-1.7,1.8c-.2-.1-.4-.2-.6-.3-.2-.1-.4-.2-.6-.3,0,0-.1,0-.2-.1,0,0-.1,0-.2-.1-.1,0-.3-.2-.4-.2s-.3-.2-.5-.2c-.3-.2-.6-.3-.9-.5-.3-.1-.5-.3-.8-.4-.3-.2-.7-.3-1-.5-.3-.1-.7-.2-1.2-.3,0,0-.1,0-.2,0,0,0-.1,0-.2,0-.1,0-.2,0-.3,0,0,0-.2,0-.2,0,0,0,0,0,0,0,0,0,0,0-.1,0,0,0,0,0,0,0,0,0,0,0,0,.1,0,0,0,.1,0,.2,0,.1,0,.2,0,.4,0,.1,0,.3,0,.4,0,.2,0,.4,0,.6,0,.2,0,.4-.1.6,0,.2,0,.3-.1.5,0,.2-.1.3-.2.5-.3.7-.7,1.3-1.1,1.8-.5.5-1,.9-1.5,1.1-.3.1-.5.2-.8.3-.3,0-.5.1-.7.1-.2,0-.3,0-.5,0-.2,0-.3-.1-.4-.2-.2-.1-.3-.2-.3-.4,0-.2-.1-.4-.1-.6s0-.4,0-.7c0-.2.1-.5.2-.7,0-.2.2-.5.3-.7.1-.2.2-.5.4-.7.2-.3.4-.6.7-.9.3-.3.6-.6.8-.8.4-.3.8-.6,1.1-.9s.6-.4.8-.4c0,0,0,0,0,0,0,0,0,0,0,0,0,0-.1,0-.2,0,0,0-.1,0-.3,0h-.1s0,0-.1,0c-.3,0-.7.2-1,.3-.4.2-.8.4-1.2.6-.2.1-.4.3-.6.4-.2.1-.4.3-.6.4-.4.4-.8.7-1.2,1.1-.4.3-.7.7-1,1-.4.4-.7.8-1,1.2-.3.4-.6.8-.9,1.3-.2.3-.5.7-.7,1-.2.4-.5.8-.7,1.1-.3.4-.5.8-.7,1.2-.2.4-.4.7-.5,1.1-.2.5-.4,1.1-.5,1.6-.1.6-.2,1.1-.2,1.8s.1,1.3.3,1.8c.2.5.6.7,1.2.8,0,0,.2,0,.2,0,0,0,.2,0,.2,0,.7,0,1.4-.2,2.1-.7.7-.5,1.2-1,1.7-1.7,0,0,0,0,0,0,0,0,0,0,0,0,.2-.2.4-.5.5-.8.2-.3.3-.6.4-.9.1-.3.3-.7.3-1,0-.3.1-.6.1-.9s0-.4-.1-.6c0-.2-.2-.3-.4-.3h0s0,0,0,0h0c-.3,0-.5,0-.7.3s-.4.4-.6.6c0,0,0,0,0,0s0,0,0,0c0,0,0,0,0,0,0,0,0,0,0,0,0,.1-.2.2-.2.4,0,.2-.1.3-.2.5,0,.3-.2.6-.2.8,0,.2,0,.4-.1.4-.1,0-.2,0-.3.1-.1,0-.2,0-.3.1,0,0,0,0-.1,0s0,0,0,0c0,0-.1,0-.2.1,0,0-.1,0-.2.1,0,0,0,0-.1.1s-.1,0-.2.1c0,0,0,0-.1.1,0,0,0,0-.1.1-.2.2-.3.3-.5.4-.1.1-.2.2-.3.1,0,0,0,0,0-.1,0,0,0-.2,0-.3,0-.2,0-.6,0-1,0-.4.2-.8.3-1.3,0-.3.2-.6.3-.9s.3-.5.5-.8c.4-.5.9-.9,1.4-1.2.5-.3,1.1-.4,1.7-.4s.2,0,.3,0c0,0,.2,0,.3,0,.5.1.8.3,1,.6.2.3.3.7.3,1.1s0,.7-.1,1.1-.2.8-.4,1.1c-.2.4-.3.8-.5,1.1-.2.4-.4.7-.6,1-.7,1.1-1.5,2-2.5,2.7-1,.7-2,1-3.1,1h-.2c0,0-.2,0-.3,0-1.1-.1-2-.4-2.7-.9-.7-.5-1.1-1.4-1.1-2.7s0-.5,0-.8c0-.3,0-.6.1-.9.2-1.2.6-2.4,1.2-3.4.5-1.1,1.1-2,1.7-2.9.3-.5.6-.9.9-1.3s.6-.7.9-1c.2-.2.4-.4.6-.6.2-.2.4-.4.6-.6,1.1-1,2.3-2,3.7-2.9,1.4-.9,2.9-1.4,4.5-1.5h.1c.2,0,.4,0,.5,0s.3.1.5.2.2,0,.3.2c0,0,.2.1.3.2,0,0,0,0,.1,0s0,0,.1,0c.2-.1.4-.2.7-.3s.4-.1.6-.2c.3,0,.6-.1.9-.2.3,0,.6,0,1,0h0ZM278.3,141.8s0,.2-.1.4c0,.2-.2.4-.4.7,0,0,0,0,0,0,0,0,0,0,0,0-.1.2-.2.4-.3.6-.1.2-.2.3-.2.3,0,0-.1,0-.3,0s-.4,0-.6,0h-.2c-.2,0-.3,0-.5,0-.1,0-.2,0-.3,0,0,0,0-.2,0-.4,0-.2.2-.4.3-.7,0,0,0,0,0-.1,0,0,0,0,0-.1.1-.2.2-.4.3-.5s.2-.2.2-.3c0,0,.1,0,.3,0,.2,0,.4,0,.6,0h0c.2,0,.4,0,.6,0,.2,0,.3,0,.3,0h0ZM299.3,144.6c-.2.4-.5.8-.7,1.1-.2.3-.4.7-.6,1-.1.2-.2.5-.4.7-.1.2-.2.5-.3.7,0,.2-.2.4-.2.6,0,.2-.2.4-.2.6.4-.3.9-.6,1.4-1,.6-.4,1.1-.9,1.7-1.5,0,0,.2-.2.3-.3s.2-.2.3-.3c.3-.3.5-.6.7-.8.2-.2.4-.5.6-.7,0,0,.1-.2.2-.3,0,0,.1-.2.2-.3.2-.2.3-.4.5-.6.2-.2.3-.5.5-.7l.9-.2c-.2.3-.4.6-.5.8s-.3.5-.5.7c-.1.1-.2.3-.3.4-.1.1-.2.3-.3.4-.2.2-.4.5-.6.7-.2.2-.5.5-.8.8-.3.3-.6.6-.8.9-.3.3-.5.5-.8.7-.2.2-.4.4-.6.5-.2.2-.4.3-.7.5-.2.2-.5.4-.8.5s-.5.4-.9.6c0,0,0,.1-.2.4-.1.2-.3.5-.4.9,0,.1,0,.3-.1.4,0,.1-.1.3-.1.4,0,.3-.2.5-.2.8s0,.5,0,.7c0,.2,0,.3,0,.4,0,.1.1.2.2.2,0,0,0,0,0,0h0c.1,0,.3,0,.4-.1.2,0,.3-.2.5-.3.1-.1.2-.2.4-.3.1-.1.2-.3.3-.4,0,0,.1-.1.2-.2s.1-.1.2-.2c.8-1,1.5-1.9,2.1-2.7.6-.8,1.2-1.5,1.7-2,.1-.1.3-.2.4-.4.1-.1.3-.2.4-.3.1,0,.2-.2.3-.2.1,0,.2-.1.3-.2.2-.1.5-.2.7-.3.2,0,.5,0,.8,0s.6,0,.8,0c.2,0,.3.1.4.2,0,0,.1,0,.1.1s0,0,.1.1h0s0,0,0,0c0,0,0,0,0-.1,0,0,0,0,0,0,0,0,0,0,0,0,0,0,0,0,0,0,0,0,0,0,0,0,0,0,.1,0,.3,0,.2,0,.4,0,.6,0h.1c.3,0,.5,0,.7,0,.2,0,.4,0,.4,0,0,0-.2.4-.6,1.1s-.9,1.5-1.4,2.3c0,0,0,.1-.1.2,0,0,0,.1,0,.2-.5.8-.9,1.5-1.2,2.2-.4.7-.5,1.2-.5,1.4s0,0,0,0,0,0,0,0c0,0,0,0,.1,0s0,0,.1,0c.2,0,.3,0,.5-.2.2-.1.4-.3.6-.5,0,0,.2-.2.2-.3s.2-.2.2-.3c0,0,.1-.2.2-.3,0-.1.1-.2.2-.3,0,0,0,0,0,0s0,0,0-.1c.1-.2.2-.4.4-.5.1-.1.3-.2.4-.1.2,0,.1.3-.1.8-.3.5-.6,1-1.1,1.6-.3.3-.5.7-.9,1-.3.3-.6.6-1,.8-.3.2-.5.3-.8.5s-.5.2-.7.2c-.4,0-.7,0-.9-.2-.2-.2-.3-.3-.4-.6,0-.1,0-.3-.1-.4,0-.1,0-.2,0-.3,0,0,0,0,0,0s0,0,0,0c0,0,0,.1-.2.3-.1.1-.3.3-.4.5-.2.2-.5.4-.8.6-.3.2-.6.3-1,.3-.6,0-.9-.1-1.2-.4-.2-.3-.3-.6-.4-.9,0,0,0,0,0-.1h0c0-.3,0-.4,0-.6,0-.1,0-.3,0-.4,0,0,0-.1,0-.2,0,0,0,0,0-.1,0,0-.1.2-.3.5-.2.3-.5.5-.8.8-.1,0-.2.2-.3.3-.1.1-.2.2-.4.3-.3.2-.5.4-.8.5-.2.1-.5.2-.6.2-.4,0-.8-.2-1.1-.5-.3-.3-.4-.7-.4-1.1s0-.5,0-.8c0-.3.1-.7.2-1,0-.2,0-.3,0-.5,0-.2,0-.3.1-.4,0-.3.2-.6.2-.8,0-.2.1-.4.2-.4h-.9c0,.3-.2.5-.4.8s-.4.7-.7,1.1c0,.1-.2.2-.2.4,0,.1-.2.2-.3.3,0,0,0,0,0,0,0,0,0,0,0,0-.6.7-1.2,1.4-1.8,1.9-.6.5-1.3.8-2.1.9h-.1c0,0-.2,0-.3,0,0,0-.2,0-.3,0-.3,0-.6-.3-.9-.5s-.4-.6-.5-1h0v-.2s0,0,0,0h0c0-.6.1-1.2.4-1.9.2-.6.6-1.3,1.2-2.2.3-.4.5-.8.8-1.1.3-.3.6-.6.8-.9.7-.7,1.4-1.2,2-1.5.7-.3,1.2-.5,1.6-.5.4,0,.8.1,1.1.4s.5.7.5,1.2h0c0,.2,0,.3,0,.4,0,.1,0,.2,0,.3,0,.1,0,.3-.1.4,0,.1,0,.3-.1.4,0,.2-.1.3-.2.4s0,.2-.1.2l.8-.2c.2-.4.3-.8.4-1.1.1-.3.2-.6.4-.9,0-.2.1-.3.2-.4s.1-.3.2-.4c.2-.3.3-.6.5-.9.2-.3.4-.7.6-1,.2-.4.5-.8.8-1.3.3-.4.6-.9,1-1.3.3-.3.6-.7.8-1,.3-.3.6-.7.9-1,.6-.6,1.1-1.2,1.7-1.7.6-.5,1-.9,1.5-1.2.6-.4,1.1-.7,1.5-.8.4-.1.7-.2,1-.2s.2,0,.3,0,.2,0,.3,0c.2,0,.4.1.5.3.1.2.2.3.2.6h0c0,.2,0,.3,0,.4,0,0,0,.2,0,.3,0,.1,0,.2-.1.4s0,.2-.1.4c0,.1-.1.2-.2.3,0,0,0,.1-.1.1l-.8.2s0,0,.1-.2.1-.2.1-.3c0,0,0-.2.1-.3s0-.2.1-.3c0-.1,0-.2.1-.3s0-.2,0-.3,0-.2,0-.3c0,0-.1-.1-.2-.2,0,0,0,0,0,0h0c-.4,0-1,.3-1.8,1.1-.8.7-1.6,1.6-2.4,2.7-.4.5-.7,1-1.1,1.5-.4.5-.7,1-1,1.6h0ZM290.5,138.7c-.2,0-.4.2-.7.3-.3.1-.5.3-.8.5-.2.2-.5.4-.7.6-.2.2-.4.5-.6.8,0,0,0,.1-.1.2,0,0,0,.1-.1.2,0,.1-.1.2-.2.4,0,.1-.1.3-.2.4-.1.3-.3.5-.4.8-.1.3-.1.5-.1.7s0,.2,0,.3c0,0,0,.1.1.2,0,0,.1.1.2.1,0,0,.1,0,.2,0,.2,0,.3,0,.5-.1.2,0,.4-.2.6-.3.2-.2.5-.4.7-.6s.5-.5.6-.7c0,0,0,0,0-.1,0,0,0,0,0-.1.4-.6.6-1.1.7-1.5.1-.4.2-.8.2-1.1s0-.3,0-.5c0-.2,0-.3,0-.4h0ZM288.8,151.9s0,0,0,.1c0,0,0,0,0,.1,0,.1,0,.2-.1.4,0,.1-.1.2-.1.4,0,.2-.2.4-.2.6s0,.4,0,.5,0,.2,0,.3c0,0,0,.1.2.2,0,0,0,0,.1,0,0,0,0,0,.2,0,.2,0,.4,0,.6-.1.2,0,.4-.2.7-.4.2-.1.3-.3.5-.4.2-.1.3-.3.4-.5,0,0,.1-.2.3-.4s.2-.3.4-.5c0,0,0,0,0,0,0,0,0,0,0,0,.1-.2.2-.4.3-.6.1-.2.2-.3.2-.4-.2,0-.3,0-.4,0s-.2,0-.3-.1c0,0-.1,0-.2,0,0,0-.1,0-.2-.1-.2-.1-.4-.3-.5-.4-.1-.2-.2-.3-.4-.6-.1.1-.2.3-.3.4,0,.1-.2.3-.3.4,0,.1-.1.2-.2.3,0,0,0,.2-.1.3,0,.1-.1.3-.2.4,0,.1-.1.3-.2.4h0ZM292.3,150.4s0,0,0,0c0,0,0,0,0-.1,0-.1.1-.3.2-.5s.1-.4.2-.6c0,0,0-.2,0-.3,0,0,0-.2,0-.3h0c0-.3,0-.5-.1-.6s-.1-.2-.2-.2c0,0,0,0,0,0,0,0,0,0,0,0h0c0,0-.2,0-.2,0,0,0-.2,0-.3,0-.2,0-.3.2-.5.3-.2.1-.3.3-.4.4,0,0-.1.2-.2.3,0,0,0,.2,0,.3h0c0,0,0,.2,0,.3,0,.1.1.2.2.3.1.2.3.3.5.5.2.1.4.2.6.3h.1s0,0,0,0h0ZM304.2,147.9s0,0-.1.1c0,0,0,0-.1,0-.2.2-.5.4-.8.8-.3.3-.7.9-1.3,1.7-.1.2-.2.4-.4.6-.1.2-.2.4-.3.6-.2.4-.4.8-.5,1.3-.1.4-.2.7-.2,1s0,.2,0,.3c0,0,0,.1.1.2,0,0,0,0,0,0,0,0,0,0,0,0,0,0,0,0,0,0h0c.2,0,.4,0,.6-.3s.4-.4.5-.6c0,0,0,0,.1-.1,0,0,0-.1,0-.1.6-.9,1.1-1.8,1.6-2.6.5-.8,1-1.6,1.5-2.4,0,0,0-.1,0-.2s0,0,0-.1c0,0,0-.1,0-.1,0,0,0,0-.1-.1,0,0,0,0,0,0,0,0,0,0,0,0,0,0,0,0-.1,0s0,0-.1,0c-.1,0-.2,0-.3,0-.1,0-.3.1-.4.3h0ZM306.8,139.8c.3-.1.6-.2.9-.3.3-.1.5-.2.7-.4.9-.5,1.5-1,1.9-1.5s.6-.7.8-.6c0,0,0,0,0,0,.2,0,.1.4-.2.9-.3.5-.8,1.1-1.5,1.7-.4.4-.9.8-1.4,1.1-.5.4-1,.7-1.6.9-.4.2-.7.3-1,.4-.3.1-.6.2-.9.3-.3,0-.5.1-.8.1-.3,0-.6,0-.9,0s-.4,0-.7,0c-.3,0-.5,0-.8,0l1.5-2c.4,0,.8,0,1.2,0s.7,0,1-.2c.3,0,.6-.1.8-.2.3,0,.6-.2.9-.3h0Z"/>
        </g>
        <g id="bouton-orange">
            <rect class="cls-5" x="86.7" y="105.3" width="95.5" height="86.1"/>
            <circle class="cls-10" cx="132.9" cy="148.3" r="37.7"/>
            <circle class="cls-12" cx="132.9" cy="147.9" r="29.8"/>
            <path class="cls-11" d="M111.2,135.6c-.3-7.4,7.7-11.3,10.8-11.1,0,0,8.5,13.7,8.5,19.3,0,0-4.6,2.5-19.3-8.2Z"/>
            <path class="cls-11" d="M126.3,122.6c5.2-5.3,13.5-2.2,15.5.2,0,0-4.1,15.6-8.1,19.4,0,0-5-1.6-7.3-19.6Z"/>
            <path class="cls-11" d="M145.2,124.7c7.4-.3,11.3,7.7,11.1,10.8,0,0-13.7,8.5-19.3,8.5,0,0-2.5-4.6,8.2-19.3Z"/>
            <path class="cls-11" d="M110,155.1c-5.7-4.7-3.3-13.2-1.2-15.4,0,0,15.9,2.7,20.1,6.4,0,0-1.2,5.1-18.9,9Z"/>
            <path class="cls-11" d="M122.5,169.6c-7.4.8-11.8-6.8-11.9-9.9,0,0,13-9.5,18.6-9.9,0,0,2.8,4.4-6.7,19.8Z"/>
            <path class="cls-11" d="M140.6,171.8c-5.2,5.3-13.5,2.3-15.5,0,0,0,4-15.7,8-19.5,0,0,5,1.6,7.5,19.5Z"/>
            <path class="cls-11" d="M157,139.7c5.6,4.8,3,13.3.9,15.5,0,0-15.9-3.1-19.9-6.8,0,0,1.3-5.1,19.1-8.6Z"/>
            <path class="cls-11" d="M156,159.2c.3,7.4-7.7,11.3-10.8,11.1,0,0-8.5-13.7-8.5-19.3,0,0,4.6-2.5,19.3,8.2Z"/>
        </g>
</svg>