<?xml version="1.0" encoding="UTF-8"?><svg xmlns="http://www.w3.org/2000/svg" viewBox="0 0 234.55 400.25"><defs><style>.cls-1,.cls-2,.cls-3,.cls-4,.cls-5,.cls-6{stroke-miterlimit:10;stroke-width:.25px;}.cls-1,.cls-4{fill:#b64492;stroke:#671b53;}.cls-7{fill:#f6db68;}.cls-7,.cls-8,.cls-9,.cls-10,.cls-11{stroke-width:0px;}.cls-2{fill:#e4ebef;}.cls-2,.cls-3,.cls-6{stroke:#000;}.cls-8{fill:#e8890c;}.cls-12{isolation:isolate;}.cls-9{fill:#f9f7d0;}.cls-3{fill:#a5a0a4;}.cls-10{fill:none;}.cls-4{mix-blend-mode:multiply;}.cls-11{fill:#eaac1d;}.cls-5{fill:#f1ab4e;stroke:#b27a36;}.cls-6{fill:#ddd9dc;}</style></defs><g class="cls-12"><g id="Calque_2"><rect class="cls-2" x="22.09" y="116.54" width="186.14" height="283.59" rx="23.89" ry="23.89"/><path class="cls-8" d="M22.09,185.68v188.76c0,14.18,11.5,25.68,25.68,25.68h134.78c14.18,0,25.68-11.5,25.68-25.68v-188.76H22.09Z"/><path class="cls-11" d="M22.09,185.68c0,4.15,35.25,7.57,80.9,8.1v-16.19c-45.64.52-80.9,3.95-80.9,8.1Z"/><path class="cls-11" d="M131.57,177.64v16.08c43.57-.68,76.65-4.02,76.65-8.04s-33.09-7.36-76.65-8.04Z"/><path class="cls-4" d="M102.98,193.78v202.91h28.59v-202.97c-5.33.08-10.81.13-16.42.13-4.13,0-8.19-.03-12.18-.07Z"/><path class="cls-1" d="M102.98.12v193.66c3.99.05,8.05.07,12.18.07,5.61,0,11.08-.05,16.42-.13V.12h-28.59Z"/><path class="cls-6" d="M214.59,112.16c-7.56-45.98-48.24-81.11-97.31-81.11S27.52,66.18,19.96,112.16h194.63Z"/><rect class="cls-3" x=".12" y="112.16" width="234.3" height="46.1" rx="8.67" ry="8.67"/><circle class="cls-5" cx="117.28" cy="76.2" r="32.31"/><circle class="cls-9" cx="117.28" cy="75.84" r="25.53"/><path class="cls-7" d="M98.63,65.28c-.22-6.36,6.61-9.66,9.24-9.53,0,0,7.28,11.77,7.28,16.53,0,0-3.98,2.14-16.52-7Z"/><path class="cls-7" d="M111.62,54.18c4.46-4.54,11.56-1.85,13.27.14,0,0-3.52,13.38-6.98,16.66,0,0-4.29-1.41-6.29-16.81Z"/><path class="cls-7" d="M127.76,55.98c6.36-.22,9.66,6.61,9.53,9.24,0,0-11.77,7.28-16.53,7.28,0,0-2.14-3.98,7-16.52Z"/><path class="cls-7" d="M97.67,82.02c-4.92-4.04-2.86-11.35-1.03-13.23,0,0,13.64,2.33,17.21,5.48,0,0-1.03,4.4-16.18,7.75Z"/><path class="cls-7" d="M108.36,94.42c-6.32.71-10.13-5.86-10.21-8.49,0,0,11.18-8.16,15.93-8.52,0,0,2.44,3.8-5.72,17.01Z"/><path class="cls-7" d="M123.81,96.28c-4.42,4.58-11.54,1.95-13.27-.02,0,0,3.4-13.41,6.83-16.72,0,0,4.3,1.37,6.44,16.75Z"/><path class="cls-7" d="M137.87,68.77c4.82,4.15,2.6,11.41.73,13.25,0,0-13.59-2.63-17.09-5.87,0,0,1.13-4.37,16.35-7.39Z"/><path class="cls-7" d="M137.06,85.51c.22,6.36-6.61,9.66-9.24,9.53,0,0-7.28-11.77-7.28-16.53,0,0,3.98-2.14,16.52,7Z"/></g><g id="contour"><path class="cls-10" d="M22.09,158.26v222.99s7.82,18.96,20.26,18.67,141.99.21,141.99.21c0,0,20.88,1.91,23.89-23.89v-217.98h19.9s2.82.18,6.3-6.94v-32.89s-3.33-7.81-8.67-6.27l-9.78.25s-9.41-68.05-84.41-80.34V.12h-28.59v31.94S32.84,40.11,19.96,112.16l-13.2.25S.12,114.03.12,120.83s.26,30.84.26,30.84c0,0-.46,4.64,6.38,6.59h15.32Z"/></g></g></svg>