<?xml version="1.0" encoding="UTF-8"?><svg xmlns="http://www.w3.org/2000/svg" viewBox="0 0 367.98 136.92"><defs><style>.cls-1{fill:#000;}.cls-1,.cls-2,.cls-3,.cls-4,.cls-5,.cls-6,.cls-7,.cls-8,.cls-9,.cls-10{stroke-width:0px;}.cls-2{fill:#efefed;}.cls-11{fill:#f2a755;stroke:#513217;stroke-width:.5px;}.cls-11,.cls-12{stroke-miterlimit:10;}.cls-3{fill:#ddc69b;}.cls-4{fill:none;}.cls-12{fill:#411212;stroke:#4e0e18;}.cls-5{fill:#edebe8;}.cls-6{fill:#f8f7f7;}.cls-7{fill:#e3d3d3;}.cls-8{fill:#9e8e8e;}.cls-9{fill:#c15a36;}.cls-10{fill:#bc9999;}</style></defs><g id="assiette"><path class="cls-1" d="M2.89,86.59s2.47,15.39,42.47,28.28c0,0,60.89,18.89,86.22,20,0,0,88.47,7.68,139.56-6.67,0,0,25.53-6.58,34.89-9.33L2.89,86.59Z"/><path class="cls-8" d="M55.14,41.54s-104.89,27.83-25.33,63.92c0,0,56.44,24.08,133.78,25.86,0,0,76.45,1.78,142.45-12.44,0,0,27.33-7.11,44.66-17.78,0,0,49.33-27.56-18.67-53.78,0,0-91.56-21.33-140.44-19.11,0,0-108.28,3.01-136.44,13.33Z"/><path class="cls-7" d="M48.92,46.43s-84.89,21.33-16,56c0,0,56,26.22,180,21.78,0,0,85.33-2.1,119.56-19.05,0,0,73.78-29.84-7.11-56.06,0,0-59.56-17.33-129.33-16.89,0,0-102.67-.89-147.11,14.22Z"/><path class="cls-6" d="M101.92,58.83s-69.78,14-20.89,32.67c0,0,31.11,12.45,74.22,13.56,0,0,83.04,1.33,104.85-6,0,0,19.81-1.78,35.59-9.78,0,0,32.22-17.11-17.11-27.56,0,0-56.44-10-72.22-8.67,0,0-89.78-.12-104.44,5.78Z"/><path class="cls-10" d="M90.14,65.06s-43.33,9.56-9.11,26.44c0,0,55.56,18,105.56,13.11,0,0,79.33-1.78,98.89-12,0,0,38.89-12.22-4.22-27.56,0,0-36.67-8.22-84.89-9.33,0,0-96,1.78-106.22,9.33Z"/></g><g id="assiette-pain"><path id="pain_dessus" class="cls-11" d="M101.79,17.05S104.31-.27,144.29.26c0,0,92.23,19.89,103.16,28.08,0,0,63.27,40.28,3.43,74.21l-5.65,1.25L103.84,31.11s-9.29-7.53-2.05-14.06Z"/><path id="lumiere_pain_dessus" class="cls-5" d="M110.51,9.51s47.76-1.13,72.17,5.5c0,0,30.07,11.85,48.16,20.04,0,0,16.23,9.75,20.27,16.44,0,0-42.45-25.46-49.18-26.1,0,0-20.97-8.46-32.25-9.67,0,0-56.72-7.35-59.17-6.22Z"/><path id="interrieur" class="cls-3" d="M249.89,95.74s21.33-20.47-2.96-47.85c0,0-42.06-29.51-81.24-32.34,0,0-24.46-5.23-55.18-6.03,0,0-14.78,8.94-3.78,22.26,12.04,14.57,0,0,0,0l143.16,63.97"/><g id="assiette-saucisse"><path class="cls-9" d="M120.61,49.87s59.2,11.79,133.14,37.49c0,0,35.81-10.91,11.07-31.46,0,0-102.71-42.19-138.62-37.69,0,0-30.09-2.01-33.54,8.27,0,0-15.46,18.5,27.95,23.39Z"/><path class="cls-12" d="M108.1,18.8s1.79,5.88-4.36,9.04c0,0,10.27-3.88,14.62-9.26l-10.26.22Z"/><path class="cls-12" d="M219.41,38.9s.93,9.22-5.24,11.49c0,0,8.35.53,20.34-6.12l-15.1-5.37Z"/><path class="cls-12" d="M131.69,18.3s2.23,7.49-1.26,10.53c0,0,7.78-1.76,15.26-9.87l-14-.66Z"/><path class="cls-12" d="M162.02,22.9s2.52,6.96-3.32,11.09c0,0,13.32-.86,17.32-7.69l-14-3.4Z"/><path class="cls-12" d="M190.03,30.22s4.11,1.69-2.66,9.24c0,0,4.92,1.36,14.55-6.39l-11.9-2.85Z"/><path class="cls-12" d="M248.98,49.67s-.6,6.57-6.48,8.92c0,0,10.98.61,15.31-4.72l-8.83-4.2Z"/><path id="assiette-sauce" class="cls-2" d="M121.56,13.83c-2.25,1.09-4.36,2.36-6.27,3.99s-4.04,3.5-4.47,6.08c-.39,2.32.79,4.6,2.65,5.94,2,1.44,4.4,1.74,6.75,1.05s4.15-2.22,5.69-3.91c1.63-1.8,2.94-3.99,4.9-5.47,2.97-2.24,7.55-3.34,11-1.54.58.3,1.16.72,1.47,1.27.29.52.2.91.02,1.33-.69,1.63-2.28,2.91-3.26,4.41-1.19,1.81-1.67,4.01-.88,6.09.92,2.43,3.28,4.01,5.72,4.6,5.01,1.22,9.81-1.7,13.43-4.83,3.43-2.96,6.76-6.04,11.41-6.79,1.92-.31,4.18-.32,5.9.74,1.34.83,1.93,2.36,1.22,3.69-.89,1.66-2.43,2.89-3.32,4.58-1.08,2.06-.95,4.29.32,6.23,2.25,3.43,6.81,4.43,10.65,3.81,4.77-.77,8.54-3.8,12.6-6.18,3.42-2.01,8.22-3.89,12.13-2.18,1.6.7,2.97,2.03,3.67,3.64.74,1.72.51,3.13-.47,4.67-1.37,2.16-2.33,4.45-1.21,6.97.95,2.13,3,3.88,5.32,4.32,4.16.79,8.19-1.26,11.49-3.56,3.33-2.33,6.49-5.04,10.49-6.14,3.68-1.01,7.56.52,8.91,4.25.8,2.23-.06,4.42.18,6.7.22,2.13,1.27,4.07,2.98,5.37,3.69,2.81,8.34,2.53,12.55,1.24,2.2-.68,4.36-1.59,6.65-1.93,1.33-.2,2.41-1.26,2.31-2.68-.09-1.27-1.34-2.51-2.68-2.31-2.46.37-4.76,1.18-7.12,1.94-1.75.57-3.7,1.17-5.48.95-1.4-.17-2.9-.68-3.66-1.61-1.21-1.48-.29-4.06-.34-5.92-.11-4.25-2.93-8.38-6.75-10.2-4.52-2.16-9.57-.87-13.75,1.41-3.35,1.83-6.17,4.45-9.48,6.32-1.38.78-2.89,1.31-4.48,1.33-1.07.01-2.83-.7-2.66-2.09.09-.75.93-1.64,1.33-2.29.61-1,1.07-2.12,1.24-3.29.32-2.2-.19-4.34-1.21-6.28-2.18-4.15-6.48-6.3-11.05-6.41s-9.22,2.05-13.13,4.51c-3.37,2.12-6.83,4.76-10.95,4.62-1.28-.04-2.68-.38-3.59-1.33-.16-.17-.58-.82-.59-.88-.05-.46.5-1.18.89-1.69,1.27-1.63,2.69-3.15,3.29-5.18.65-2.18.06-4.61-1.28-6.42-2.89-3.91-8.29-4.4-12.7-3.44-4.83,1.05-8.46,3.86-12.08,7.05-2.62,2.3-7.26,6.2-11,3.96-1.42-.85-1.25-1.8-.52-2.88,1.02-1.5,2.44-2.75,3.3-4.4,2.2-4.23-.55-8.52-4.67-10.06s-9.19-.95-13.19,1.21c-2.05,1.11-3.73,2.73-5.21,4.52-1.38,1.68-2.66,3.6-4.55,4.76-1.21.75-2.97,1.25-3.99-.04-.26-.33-.34-.6-.25-.91.29-.95,1.45-1.83,2.15-2.46,1.56-1.41,3.37-2.63,5.26-3.54,1.21-.59,2.02-1.8,1.54-3.18-.4-1.16-1.96-2.13-3.18-1.54h0Z"/></g><path id="pain_dessous" class="cls-11" d="M94.79,29.77s-43.48,2.37-19.93,35.99c0,0,24.93,30.28,64.56,37.87,0,0,26.22,14.21,56.62,19.9,0,0,47.5.66,55.7-33.47,0,0-17.03-23.37-64.17-34.76,0,0-81.98-26.11-92.78-25.53Z"/><path id="lumiere_pain_dessous" class="cls-5" d="M95.64,29.77s28.93,4.97,39.37,9.57c0,0,34.09,9.71,41.86,11.93,0,0,43.1,12.9,46.01,16.9,0,0,22.27,12.68,24.24,16.85,0,0,4.01,2.78,4.66,4.29,0,0-21.14-16.04-28.4-19.61,0,0-40.9-14.41-45.43-15.99,0,0-55.8-16.1-61.52-17.68l-20.79-6.24Z"/></g><g id="contour-pain"><path class="cls-4" d="M275.59,76.64s-9.01,23.04-30.36,27.16c0,0-9.57,17.01-42.03,19.33l-7.15.39s-47.28-14.09-55.47-19.72c0,0-53.39-10.81-69.98-46.1,0,0-12.8-18.92,17.27-27.26l2.92-.68s1.54-7.07,8.46-8.87c0,0-1.59-.42,2.53-3.84,0,0,2.7-17.56,42.5-16.79,0,0,92.11,20.61,100.92,26.77,0,0,37.42,20.55,30.37,49.61"/></g></svg>