<?xml version="1.0" encoding="UTF-8"?><svg id="Calque_1" xmlns="http://www.w3.org/2000/svg" viewBox="0 0 395.25 331.35"><defs><style>.cls-1{fill:#0b0c0c;}.cls-1,.cls-2,.cls-3,.cls-4,.cls-5{stroke-width:0px;}.cls-6{fill:#060707;}.cls-6,.cls-7{stroke:#090a0a;}.cls-6,.cls-7,.cls-8,.cls-9{stroke-miterlimit:10;}.cls-7{fill:#515151;}.cls-2{fill:#272324;}.cls-3{fill:#c15a36;}.cls-8{fill:#701321;stroke:#060707;}.cls-4{fill:#7e7f80;}.cls-5{fill:#2b2525;}.cls-9{fill:#411212;stroke:#4e0e18;}</style></defs><g id="poele"><rect class="cls-1" y="51.11" width="311.37" height="280.24"/><path class="cls-5" d="M191.46,77.44s34.09,2.38,63.87-18.06c0,0,79.56-55,97.33-56.89,0,0,49.31-10.7,35.7,12.23-3.26,5.49-8.24,9.74-14.06,12.35-15.5,6.95-54.08,24.8-68.75,36.75,0,0-38.62,20.73-44.2,48.59s-69.89-34.97-69.89-34.97Z"/><path class="cls-7" d="M29.03,188.94S-11.86,117.6,77.48,82.49c0,0,57.99-25.78,130.33,0,0,0,77.77,28.42,83.99,75.09,0,0-2.41,43.24-33.03,54.74,0,0-54.93,44.08-129.66,28.46,0,0-64.43-.29-100.07-51.84h0Z"/><path class="cls-2" d="M34.81,183.83s-11.56-64.16,95.11-71.41c0,0,76.44-7.7,125.78,44.75,0,0,21.35,29.74,8.46,52.63,0,0-26.68,21.15-60.02,27.81,0,0-68,24-144-24,0,0-16.44-9.78-25.33-29.78Z"/><path class="cls-4" d="M291.79,157.58s2.57,11.87-3.21,29.8c0,0-16,27.56-32.44,33.78,0,0-37.63,24.96-62.15,26.44,0,0-55.19,9.56-113.41-14.88,0,0-51.78-28.89-59.56-64,0,0-4.44-9.11,4.44-39.56,4.99-17.08-10.67,31.11,9.33,54.67,0,0,16,37.33,72.89,52.89,0,0,92.3,17.41,141.33-17.33,0,0,37.53-15.15,42.76-61.8h.02Z"/><path class="cls-8" d="M20.1,155.9s-9.58,63.11,54.86,100.89c0,0,72.02,39.65,167.63-5.25,3.17-1.49,6.13-3.39,8.78-5.68,12.19-10.5,45.1-43.32,40.42-88.28,0,0,3.72,31.46-29.65,59.13,0,0-31.77,26.07-95.33,29.85,0,0-72.89,11.04-123.93-42.58,0,0-22.39-24.97-22.79-48.08h.01Z"/><path class="cls-6" d="M275.52,125.57s.25-22.3,18.92-37.41c0,0,30.07-21.63,34.67-22.81,0,0,48-25.04,48.59-26.52,0,0,28.23-16.01,12.04-34.38,0,0,6.12,12.32-19.34,24.39,0,0-57.1,25.77-73.27,40.18,0,0-31.83,18.17-35.78,43.4l14.17,13.16h0Z"/></g><g id="allSaucisse"><g id="saucisse-poele"><path class="cls-3" d="M216.46,177.25s-1.98-.47-5.2-1.16c-10.92-2.33-36.11-7.18-46.76-4.89,0,0-28.84.03-49.62,13.36-16.26,10.43-11.89,10.18-19.7,17.31,0,0-12.19,16.96-26.49-.29,0,0-7.99-7.69,6.25-24.25,0,0,24.06-25.81,45.77-29.91,0,0,26.89-10.28,63.88-7.51l40.38,6.61s15.25,6.43,8.58,22.11c0,0-4.4,9.68-17.09,8.62h0Z"/></g><g id="saucisse-cuite"><path class="cls-9" d="M210.85,175.78s-2.31-12.34-7.83-14.83c0,0,3.08,6.57,1.6,13.56l6.23,1.27Z"/><path class="cls-9" d="M185.43,171.35s-2.57-11.62-7.78-13.34l1.78,12.69,6,.65Z"/><path class="cls-9" d="M162.98,170.91s-3.72-13.66-7.93-14.36c0,0,3.02,14.62,1.45,14.78l6.48-.42Z"/><path class="cls-9" d="M142.16,173.52s-5.15-12.7-12.1-13.94c0,0,6.72,14.49,5.01,15.71l7.09-1.76h0Z"/><path class="cls-9" d="M119.02,181.61s-5.67-7.09-10.27-8.3c0,0,3.64,5.75,4.79,11.55l5.49-3.25h-.01Z"/><path class="cls-9" d="M100.56,195.19s-4.56-4.88-9.06-5.4c0,0,5.36,7.88,5.68,9.42l3.38-4.02Z"/></g></g></svg>