<?xml version="1.0" encoding="UTF-8"?><svg id="poubelle" xmlns="http://www.w3.org/2000/svg" viewBox="0 0 401 401"><defs><style>.cls-1{fill:#b7deda;}.cls-1,.cls-2{stroke:#1d1d1b;stroke-miterlimit:10;}.cls-2{fill:#0c423c;}.cls-3{fill:#fff;stroke-width:0px;}</style></defs><rect class="cls-2" x=".5" y=".5" width="400" height="121.1"/><path class="cls-3" d="M117.71,21.58c.3.55.46,1.27.46,2.16,0,1.27-.28,2.57-.83,3.9-.55,1.33-1.27,2.19-2.16,2.57-5.2-2.54-9.71-4.23-13.53-5.06l.08,41.75c0,4.37.52,7.86,1.58,10.46-.66.61-1.54,1.16-2.61,1.66s-2.31.75-3.69.75c-1.83,0-3.32-.5-4.48-1.49-1.16-1-1.74-2.35-1.74-4.07V25.15c-3.6.78-8.11,2.46-13.53,5.06-.83-.39-1.52-1.24-2.07-2.57-.55-1.33-.83-2.63-.83-3.9,0-.88.14-1.6.42-2.16.28-.55.72-.83,1.33-.83h40.34c.55,0,.98.28,1.29.83Z"/><path class="cls-3" d="M170.04,73.71c0,1.94-.72,3.43-2.16,4.48-1.44,1.05-2.9,1.58-4.4,1.58-2.16,0-3.92-.46-5.27-1.37-1.36-.91-2.46-2.16-3.32-3.73-.86-1.58-1.9-3.89-3.11-6.93l-2.57-6.81c-.72-1.83-1.38-3.25-1.99-4.27-.61-1.02-1.47-1.88-2.57-2.57-1.11-.69-2.57-1.04-4.4-1.04l-3.15-.08v14.52c0,4.15.52,7.44,1.58,9.88-.61.61-1.45,1.16-2.53,1.66s-2.31.75-3.69.75c-1.83,0-3.32-.5-4.48-1.49-1.16-1-1.74-2.35-1.74-4.07v-41.67c0-4.2-.53-7.69-1.58-10.46,3.43-1.66,8.55-2.49,15.35-2.49,8.08,0,14.15,1.19,18.22,3.57,4.07,2.38,6.1,6.22,6.1,11.54,0,4.04-1.16,7.46-3.49,10.25-2.32,2.79-5.53,4.72-9.63,5.77,1.88.55,3.44,1.41,4.69,2.57s2.37,2.66,3.36,4.48l3.49,8.05c.83,1.94,1.6,3.35,2.32,4.23.72.89,1.49,1.36,2.32,1.41.77,0,1.44-.25,1.99-.75.44,1.05.66,2.05.66,2.99ZM140.74,49.14c3.76-.11,6.64-1.44,8.63-3.98,1.99-2.54,2.99-5.78,2.99-9.71s-.91-6.72-2.74-8.88-4.76-3.24-8.8-3.24c-1.83,0-3.07.06-3.73.17v25.56c1.55.11,2.77.14,3.65.08Z"/><path class="cls-3" d="M222.5,77.28c-1.44,1.66-3.57,2.49-6.39,2.49-1.72,0-3.17-.36-4.36-1.08-1.19-.72-1.92-1.77-2.2-3.15l-3.73-13.94h-18.76l-2.74,10.71c-.39,1.44-.58,2.66-.58,3.65,0,1.16.3,2.05.91,2.66-1.05.39-2.01.68-2.86.87-.86.19-1.9.29-3.11.29-2.1,0-3.64-.36-4.61-1.08-.97-.72-1.45-1.88-1.45-3.49,0-1.33.36-3.21,1.08-5.64l16.35-48.56c3.04-1,6.09-1.49,9.13-1.49,3.32,0,5.28,1.19,5.89,3.57l14.77,49.05c.66,2.27,1.55,3.98,2.66,5.15ZM204.24,55.7l-7.97-29.71-7.72,29.71h15.69Z"/><path class="cls-3" d="M230.79,76.57c-3.32-2.19-4.98-5.02-4.98-8.51,0-1.77.53-3.22,1.58-4.36,1.05-1.13,2.77-1.7,5.15-1.7,1,0,1.8.06,2.41.17-.17.72-.25,1.47-.25,2.24,0,.55.05,1.22.17,1.99.39,2.66,1.6,4.9,3.65,6.72s4.9,2.74,8.55,2.74c2.71,0,4.95-.73,6.72-2.2,1.77-1.47,2.66-3.61,2.66-6.43,0-2.66-.87-4.88-2.61-6.68-1.74-1.8-4.75-3.89-9.01-6.27-4.04-2.32-7.22-4.36-9.54-6.1s-4.14-3.73-5.44-5.98c-1.3-2.24-1.95-4.88-1.95-7.93,0-4.98,1.84-8.67,5.52-11.08,3.68-2.41,8.37-3.61,14.07-3.61,5.31,0,9.57.83,12.78,2.49s4.81,4.07,4.81,7.22c0,1.49-.43,2.7-1.29,3.61-.86.91-2.28,1.4-4.28,1.45-.22.06-.61.08-1.16.08-.5,0-1.13-.05-1.91-.17.11-1.83-.11-3.43-.66-4.81-.44-1.83-1.47-3.31-3.07-4.44-1.61-1.13-3.76-1.7-6.47-1.7-2.21,0-4.14.55-5.77,1.66-1.63,1.11-2.45,2.93-2.45,5.48,0,1.77.39,3.35,1.16,4.73.77,1.38,2.08,2.77,3.9,4.15,1.83,1.38,4.43,3.02,7.8,4.9,3.32,1.83,6.09,3.56,8.3,5.19,2.21,1.63,4.07,3.61,5.56,5.93,1.49,2.32,2.24,5.04,2.24,8.13s-.79,5.8-2.37,8.26c-1.58,2.46-3.98,4.43-7.22,5.89s-7.21,2.2-11.91,2.2c-6.47,0-11.37-1.09-14.69-3.28Z"/><path class="cls-3" d="M322.26,77.36c-.61.61-1.45,1.16-2.53,1.66s-2.31.75-3.69.75c-1.83,0-3.32-.5-4.48-1.49s-1.74-2.35-1.74-4.07v-22.91h-22.08v15.6c0,4.37.53,7.86,1.58,10.46-.61.61-1.45,1.16-2.53,1.66s-2.31.75-3.69.75c-1.83,0-3.32-.5-4.48-1.49s-1.74-2.35-1.74-4.07v-41.67c0-4.2-.53-7.69-1.58-10.46.61-.61,1.45-1.16,2.53-1.66s2.31-.75,3.69-.75c1.83,0,3.32.5,4.48,1.49,1.16,1,1.74,2.35,1.74,4.07v20.25h22.08v-12.95c0-4.2-.53-7.69-1.58-10.46.61-.61,1.45-1.16,2.53-1.66,1.08-.5,2.31-.75,3.69-.75,1.77,0,3.25.5,4.44,1.49,1.19,1,1.78,2.35,1.78,4.07v41.67c0,4.37.53,7.86,1.58,10.46Z"/><rect class="cls-1" x=".5" y="121.6" width="400" height="278.9"/></svg>